<?xml version="1.0" encoding="UTF-8" standalone="no"?>
<svg
   xmlns:dc="http://purl.org/dc/elements/1.1/"
   xmlns:cc="http://creativecommons.org/ns#"
   xmlns:rdf="http://www.w3.org/1999/02/22-rdf-syntax-ns#"
   xmlns:svg="http://www.w3.org/2000/svg"
   xmlns="http://www.w3.org/2000/svg"
   viewBox="0 0 401.12 174.29333"
   height="174.29333"
   width="401.12"
   xml:space="preserve"
   id="svg2"
   version="1.1"><metadata
     id="metadata8"><rdf:RDF><cc:Work
         rdf:about=""><dc:format>image/svg+xml</dc:format><dc:type
           rdf:resource="http://purl.org/dc/dcmitype/StillImage" /></cc:Work></rdf:RDF></metadata><defs
     id="defs6" /><g
     transform="matrix(1.3333333,0,0,-1.3333333,0,174.29333)"
     id="g10"><g
       transform="scale(0.1)"
       id="g12"><path
         id="path14"
         style="fill:#013353;fill-opacity:1;fill-rule:nonzero;stroke:none"
         d="m 605.012,628.469 c 22.066,18.285 41.929,27.168 58.894,26.418 36.602,-1.535 49.453,-27.199 51.133,-42.649 -8.351,-2.871 -172.82,-58.144 -179.766,-60.484 -2.519,2.672 -5.402,5.758 -8.996,9.566 8.657,7.364 78.735,67.149 78.735,67.149" /><path
         id="path16"
         style="fill:#013353;fill-opacity:1;fill-rule:nonzero;stroke:none"
         d="M 0,278.859 C 0,93.8789 81.4648,0 242.031,0 348.027,0 412.41,46.8711 415.078,48.8516 l 5.156,3.7773 V 306.93 H 198.66 V 236 c 0,0 110.637,0 131.391,0 0,-20.629 0,-132.609 0,-144.1211 -13.227,-7.5977 -45.793,-20.9101 -92.934,-20.9101 -94.929,0 -141.1795,67.9722 -141.1795,207.8902 0,80 22.8245,175.395 131.2575,175.395 72.16,0 97.817,-42.016 97.817,-81.367 v -12.621 h 98.496 v 12.621 c 0,91.187 -79.211,152.418 -197.238,152.418 C 82.5,525.305 0,435.434 0,278.859" /><path
         id="path18"
         style="fill:#013353;fill-opacity:1;fill-rule:nonzero;stroke:none"
         d="M 770.098,517.594 H 479.707 V 7.75 h 310.481 v 70.9492 c 0,0 -197.688,0 -220.266,0 0,20.3711 0,139.6528 0,160.0308 22.187,0 202.89,0 202.89,0 v 70.961 c 0,0 -180.703,0 -202.89,0 0,19.747 0,117.196 0,136.934 22.433,0 212.883,0 212.883,0 v 70.969 h -12.707" /><path
         id="path20"
         style="fill:#013353;fill-opacity:1;fill-rule:nonzero;stroke:none"
         d="m 2078.96,517.594 h -441.57 c 0,0 0,-307.055 0,-377.625 -36.16,62.652 -217.79,377.625 -217.79,377.625 H 1316.46 V 7.75 h 86.84 c 0,0 0,305.992 0,376.297 C 1439.35,321.691 1621.11,7.75 1621.11,7.75 h 103.1 c 0,0 0.02,414.93 0.02,438.875 19.77,0 120.19,0 140.02,0 0,-23.945 0,-438.875 0,-438.875 h 90.2 c 0,0 0,414.93 0,438.875 20.82,0 137.11,0 137.11,0 v 70.969 h -12.6" /><path
         id="path22"
         style="fill:#013353;fill-opacity:1;fill-rule:nonzero;stroke:none"
         d="m 987.91,228.32 c 8.801,24.86 51.53,146.957 66.88,190.793 15.42,-43.836 58.25,-165.933 66.95,-190.793 -25.17,0 -108.63,0 -133.83,0 z m 114.65,289.274 h -96.4 L 813.66,7.75 h 91.953 c 0,0 50.215,134.801 55.735,149.52 15.39,0 171.762,0 187.022,0 5.59,-14.52 57.37,-149.52 57.37,-149.52 h 92 l -195.18,509.844" /><path
         id="path24"
         style="fill:#013353;fill-opacity:1;fill-rule:nonzero;stroke:none"
         d="M 2936.94,1002.89 C 2601.54,1418.22 1242.91,831.477 877.539,677.047 851.223,665.949 817.598,668.422 798.516,706.301 812.961,669.738 843.43,654.762 880.781,669.738 1366.52,863.82 2537.4,1284.7 2830.53,900.387 c 132.53,-173.762 95.44,-388.469 -49.73,-689.149 -6.86,-12.957 -11.34,-21.418 -12.36,-23.179 -0.47,-0.778 -1.01,-1.457 -1.45,-2.25 -0.46,-0.758 -0.95,-1.707 -1.46,-2.399 -11.07,-18.18 -25.27,-28.012 -39.58,-32.051 16.74,0.879 34.62,9.032 48.3,30.371 3.54,5.489 8.16,13.122 13.66,22.481 l -0.02,0.07 c 214.95,357.703 289.01,625.313 149.05,798.609" /><path
         id="path26"
         style="fill:#ed0f53;fill-opacity:1;fill-rule:nonzero;stroke:none"
         d="m 2681.69,165.578 c -4.88,4.102 -64.97,58.301 -125.32,115.063 C 2237.39,581.215 1275.98,1511.07 855.664,1266.81 737.227,1197.95 716.926,997.711 790.305,730.441 c 0.093,-0.515 0.269,-0.906 0.437,-1.394 v -0.051 c 1.028,-3.57 2,-7.156 3.028,-10.699 8,-27.754 28.171,-45.254 52.46,-46.899 -18.71,4.731 -33.613,18.575 -41.562,39.836 -1.238,2.957 -2.266,5.965 -3.074,8.965 -1.274,4.602 -2.492,9.387 -3.742,14.27 l -0.047,-0.043 c -0.852,3.168 -1.489,6.25 -2.004,9.328 -39.121,226.59 7.922,375.616 99.519,435.836 336.79,221.14 1146.79,-476.254 1552.6,-827.313 92.95,-80.457 197.64,-169.886 230.52,-194.648 46.72,-35.199 84.45,5.16 94.1,21.582 -14.54,-21.449 -54.51,-43.691 -90.85,-13.633" /></g></g></svg>
